# Blender 4.4.1
# www.blender.org
mtllib bush.mtl
o Icosphere.002
v 0.000000 -2.000000 0.000000
v -0.324911 -1.701309 0.999990
v -1.051460 -1.701303 0.000000
v -0.324911 -1.701309 -0.999990
v 0.850645 -1.701308 0.618023
v 0.850645 -1.701308 -0.618023
v 1.447215 -0.894439 -1.051451
v 0.525738 -1.051475 -1.618023
v 1.701296 -1.051472 0.000000
v 1.447215 -0.894439 1.051451
v 1.902116 0.000000 0.618025
v 1.902116 0.000000 -0.618025
v 1.788852 0.894431 0.000000
v 1.376379 1.051472 -0.999994
v 1.175571 0.000000 -1.618033
v 0.552776 0.894440 -1.701298
v 0.000000 0.000000 -2.000000
v -0.552776 -0.894440 -1.701298
v -0.525738 1.051475 -1.618023
v -1.175571 0.000000 -1.618033
v -1.447215 0.894439 -1.051451
v -1.902116 0.000000 -0.618025
v -1.376379 -1.051472 -0.999994
v -1.788852 -0.894431 0.000000
v -1.376379 -1.051472 0.999994
v -1.902116 0.000000 0.618025
v -1.447215 0.894439 1.051451
v -1.701296 1.051472 0.000000
v -1.175571 0.000000 1.618033
v -0.552776 -0.894440 1.701298
v -0.525738 1.051475 1.618023
v 0.000000 0.000000 2.000000
v 0.552776 0.894440 1.701298
v 1.175571 0.000000 1.618033
v 0.525738 -1.051475 1.618023
v 1.376379 1.051472 0.999994
v 0.324911 1.701309 0.999990
v 1.051460 1.701303 0.000000
v 0.000000 2.000000 0.000000
v 0.324911 1.701309 -0.999990
v -0.850645 1.701308 -0.618023
v -0.850645 1.701308 0.618023
v 0.000000 -2.000000 -2.000000
v 1.085411 -1.170829 -0.948549
v -0.414582 -1.170830 -0.298702
v -1.341639 -1.170823 -2.000000
v -0.414582 -1.170830 -3.701298
v 1.085411 -1.170829 -3.051451
v 0.414582 0.170830 -0.298702
v -1.085411 0.170829 -0.948549
v -1.085411 0.170829 -3.051451
v 0.414582 0.170830 -3.701298
v 1.341639 0.170823 -2.000000
v 0.000000 1.000000 -2.000000
v -0.243683 -1.775982 -1.000010
v 0.637984 -1.775981 -1.381977
v 0.394303 -1.288606 -0.381977
v 1.275972 -1.288604 -2.000000
v 0.637984 -1.775981 -2.618023
v -0.788595 -1.775977 -2.000000
v -1.032284 -1.288604 -1.000006
v -0.243683 -1.775982 -2.999990
v -1.032284 -1.288604 -2.999994
v 0.394303 -1.288606 -3.618023
v 1.426587 -0.500000 -1.381975
v 1.426587 -0.500000 -2.618025
v 0.000000 -0.500000 -0.000000
v 0.881678 -0.500000 -0.381967
v -1.426587 -0.500000 -1.381975
v -0.881678 -0.500000 -0.381967
v -0.881678 -0.500000 -3.618033
v -1.426587 -0.500000 -2.618025
v 0.881678 -0.500000 -3.618033
v 0.000000 -0.500000 -4.000000
v 1.032284 0.288604 -1.000006
v -0.394303 0.288606 -0.381977
v -1.275972 0.288604 -2.000000
v -0.394303 0.288606 -3.618023
v 1.032284 0.288604 -2.999994
v 0.243683 0.775982 -1.000010
v 0.788595 0.775977 -2.000000
v -0.637984 0.775981 -1.381977
v -0.637984 0.775981 -2.618023
v 0.243683 0.775982 -2.999990
vn -0.2680 -0.9435 0.1947
vn 0.1024 -0.9435 0.3151
vn -0.2680 -0.9435 -0.1947
vn 0.1024 -0.9435 -0.3151
vn 0.3313 -0.9435 -0.0000
vn 0.7002 -0.6617 -0.2680
vn 0.4713 -0.6617 -0.5831
vn 0.1876 -0.7947 -0.5773
vn 0.6071 -0.7947 -0.0000
vn 0.9050 -0.3304 0.2680
vn 0.7002 -0.6617 0.2680
vn 0.9050 -0.3304 -0.2680
vn 0.9822 -0.1876 -0.0000
vn 0.9921 0.1256 -0.0000
vn 0.8897 0.3304 -0.3151
vn 0.8026 -0.1256 -0.5831
vn 0.7947 0.1876 -0.5773
vn 0.5346 -0.3304 -0.7779
vn 0.3066 0.1256 -0.9435
vn 0.5746 0.3304 -0.7488
vn 0.3035 -0.1876 -0.9342
vn -0.0247 0.3304 -0.9435
vn 0.0247 -0.3304 -0.9435
vn -0.3066 -0.1256 -0.9435
vn -0.3035 0.1876 -0.9342
vn -0.5746 -0.3304 -0.7488
vn -0.8026 0.1256 -0.5831
vn -0.5346 0.3304 -0.7779
vn -0.7947 -0.1876 -0.5773
vn -0.4089 -0.6617 -0.6284
vn -0.7240 -0.6617 -0.1947
vn -0.8897 -0.3304 -0.3151
vn -0.4911 -0.7947 -0.3568
vn -0.7240 -0.6617 0.1947
vn -0.8897 -0.3304 0.3151
vn -0.9921 -0.1256 -0.0000
vn -0.8026 0.1256 0.5831
vn -0.9050 0.3304 0.2680
vn -0.9822 0.1876 -0.0000
vn -0.7947 -0.1876 0.5773
vn -0.5346 0.3304 0.7779
vn -0.5746 -0.3304 0.7488
vn -0.3066 -0.1256 0.9435
vn -0.3035 0.1876 0.9342
vn 0.0247 -0.3304 0.9435
vn 0.3066 0.1256 0.9435
vn -0.0247 0.3304 0.9435
vn 0.3035 -0.1876 0.9342
vn -0.0385 -0.6617 0.7488
vn 0.4713 -0.6617 0.5831
vn 0.5346 -0.3304 0.7779
vn 0.1876 -0.7947 0.5773
vn 0.5746 0.3304 0.7488
vn 0.8026 -0.1256 0.5831
vn 0.7947 0.1876 0.5773
vn 0.4089 0.6617 0.6284
vn 0.8897 0.3304 0.3151
vn 0.7240 0.6617 0.1947
vn 0.4911 0.7947 0.3568
vn 0.2680 0.9435 0.1947
vn 0.2680 0.9435 -0.1947
vn 0.7240 0.6617 -0.1947
vn 0.4911 0.7947 -0.3568
vn 0.4089 0.6617 -0.6284
vn 0.0385 0.6617 -0.7488
vn -0.1024 0.9435 -0.3151
vn -0.1876 0.7947 -0.5773
vn -0.4713 0.6617 -0.5831
vn -0.7002 0.6617 -0.2680
vn -0.3313 0.9435 -0.0000
vn -0.6071 0.7947 -0.0000
vn -0.7002 0.6617 0.2680
vn -0.4713 0.6617 0.5831
vn -0.1024 0.9435 0.3151
vn -0.1876 0.7947 0.5773
vn 0.0385 0.6617 0.7488
vn -0.4089 -0.6617 0.6284
vn -0.9050 0.3304 -0.2680
vn -0.4911 -0.7947 0.3568
vn -0.0385 -0.6617 -0.7488
vn 0.1047 -0.9647 0.2416
vn 0.7115 -0.6723 0.2043
vn -0.2703 -0.9514 0.1473
vn -0.2703 -0.9514 -0.1473
vn 0.1047 -0.9647 -0.2416
vn 0.9196 -0.3357 0.2043
vn 0.0317 -0.4228 0.9057
vn -0.9097 -0.3378 0.2416
vn -0.6614 -0.3803 -0.6464
vn 0.6234 -0.3853 -0.6804
vn 0.8699 -0.1362 0.4740
vn -0.3924 -0.1608 0.9057
vn -0.3924 -0.1608 -0.9057
vn 0.8699 -0.1362 -0.4740
vn 0.4496 0.7275 0.5182
vn -0.5108 0.7172 0.4740
vn -0.7115 0.6723 -0.2043
vn 0.0444 0.7617 -0.6464
vn 0.7301 0.6673 -0.1473
vn 0.2703 0.9514 -0.1473
vn 0.5054 0.8178 -0.2754
vn 0.4496 0.7275 -0.5182
vn -0.1047 0.9647 -0.2416
vn -0.2030 0.8598 -0.4685
vn -0.5108 0.7172 -0.4740
vn -0.7115 0.6723 0.2043
vn -0.1047 0.9647 0.2416
vn -0.2030 0.8598 0.4685
vn 0.0444 0.7617 0.6464
vn 0.2703 0.9514 0.1473
vn 0.5054 0.8178 0.2754
vn 0.7301 0.6673 0.1473
vn 0.9097 0.3378 -0.2416
vn 0.8598 0.2030 -0.4685
vn 0.6614 0.3803 -0.6464
vn -0.0317 0.4228 -0.9057
vn -0.3860 0.2386 -0.8911
vn -0.6234 0.3853 -0.6804
vn -0.9196 0.3357 -0.2043
vn -0.9196 0.3357 0.2043
vn -0.6234 0.3853 0.6804
vn -0.3860 0.2386 0.8911
vn -0.0317 0.4228 0.9057
vn 0.6614 0.3803 0.6464
vn 0.8598 0.2030 0.4685
vn 0.9097 0.3378 0.2416
vn 0.3924 0.1608 -0.9057
vn 0.3860 -0.2386 -0.8911
vn 0.0317 -0.4228 -0.9057
vn -0.8699 0.1362 -0.4740
vn -0.8598 -0.2030 -0.4685
vn -0.9097 -0.3378 -0.2416
vn -0.8699 0.1362 0.4740
vn -0.8598 -0.2030 0.4685
vn -0.6614 -0.3803 0.6464
vn 0.3924 0.1608 0.9057
vn 0.3860 -0.2386 0.8911
vn 0.6234 -0.3853 0.6804
vn 0.9196 -0.3357 -0.2043
vn 0.5108 -0.7172 -0.4740
vn 0.2030 -0.8598 -0.4685
vn -0.0444 -0.7617 -0.6464
vn -0.4496 -0.7275 -0.5182
vn -0.5054 -0.8178 -0.2754
vn -0.7301 -0.6673 -0.1473
vn -0.7301 -0.6673 0.1473
vn -0.5054 -0.8178 0.2754
vn -0.4496 -0.7275 0.5182
vn 0.7115 -0.6723 -0.2043
vn -0.0444 -0.7617 0.6464
vn 0.2030 -0.8598 0.4685
vn 0.5108 -0.7172 0.4740
vt 0.663497 0.253113
vt 0.594565 0.235202
vt 0.656909 0.153729
vt 0.637657 0.318094
vt 0.730174 0.227381
vt 0.696644 0.315506
vt 0.671061 0.388158
vt 0.725912 0.383792
vt 0.774432 0.317691
vt 0.615781 0.386827
vt 0.638038 0.466488
vt 0.711672 0.470687
vt 0.676882 0.557649
vt 0.792812 0.551141
vt 0.794849 0.429864
vt 0.895149 0.347562
vt 0.895149 0.481824
vt 0.000178 0.210266
vt 0.120895 0.240136
vt 0.057666 0.339310
vt 0.837661 0.218517
vt 0.000178 0.076003
vt 0.100478 0.127963
vt 0.102515 0.006687
vt 0.183654 0.087140
vt 0.169414 0.174036
vt 0.768284 0.083529
vt 0.644871 0.000178
vt 0.218445 0.000178
vt 0.537784 0.100016
vt 0.331752 0.002094
vt 0.257289 0.091340
vt 0.342797 0.120594
vt 0.279545 0.171000
vt 0.224266 0.169670
vt 0.333827 0.230197
vt 0.435722 0.061129
vt 0.447485 0.189772
vt 0.489151 0.238975
vt 0.561499 0.327630
vt 0.447841 0.368056
vt 0.552530 0.437233
vt 0.459605 0.496698
vt 0.406176 0.318852
vt 0.563575 0.555733
vt 0.357543 0.457811
vt 0.300762 0.322625
vt 0.250456 0.557649
vt 0.238418 0.404098
vt 0.231829 0.304715
vt 0.165153 0.330447
vt 0.127043 0.474299
vt 0.198683 0.242321
vt 0.257670 0.239734
vt 0.142425 0.848730
vt 0.169365 0.914600
vt 0.082194 0.883358
vt 0.222192 0.999822
vt 0.255108 0.905447
vt 0.098106 0.802158
vt 0.161546 0.797259
vt 0.200916 0.846274
vt 0.364972 0.976917
vt 0.817244 0.709533
vt 0.847621 0.805262
vt 0.759704 0.770484
vt 0.064928 0.741138
vt 0.003708 0.810189
vt 0.000178 0.676098
vt 0.181285 0.750801
vt 0.127246 0.744023
vt 0.169462 0.696623
vt 0.258283 0.831665
vt 0.219108 0.788255
vt 0.282260 0.771608
vt 0.835827 0.904712
vt 0.746852 0.954573
vt 0.765510 0.856007
vt 0.731364 0.692466
vt 0.095404 0.673219
vt 0.229061 0.727843
vt 0.334025 0.846739
vt 0.707959 0.815069
vt 0.684469 0.879315
vt 0.645319 0.814205
vt 0.656124 0.692771
vt 0.684792 0.755337
vt 0.612004 0.748685
vt 0.156299 0.633411
vt 0.079397 0.580934
vt 0.209596 0.558006
vt 0.287772 0.702916
vt 0.227636 0.658274
vt 0.321461 0.616200
vt 0.646221 0.951618
vt 0.551388 0.954573
vt 0.605074 0.878398
vt 0.513794 0.858540
vt 0.579506 0.810405
vt 0.378442 0.740659
vt 0.521340 0.752196
vt 0.576380 0.662854
vt 0.439028 0.857675
vt 0.676081 0.604511
vt 0.789680 0.610559
vt 0.000178 0.926392
vt 0.097534 0.991792
s 0
usemtl Material.001
f 1/1/1 2/2/1 3/3/1
f 1/1/2 5/4/2 2/2/2
f 1/1/3 3/3/3 4/5/3
f 1/1/4 4/5/4 6/6/4
f 5/4/5 1/1/5 6/6/5
f 9/7/6 6/6/6 7/8/6
f 6/6/7 8/9/7 7/8/7
f 6/6/8 4/5/8 8/9/8
f 9/7/9 5/4/9 6/6/9
f 10/10/10 9/7/10 11/11/10
f 10/10/11 5/4/11 9/7/11
f 9/7/12 7/8/12 12/12/12
f 11/11/13 9/7/13 12/12/13
f 11/11/14 12/12/14 13/13/14
f 12/12/15 14/14/15 13/13/15
f 7/8/16 15/15/16 12/12/16
f 12/12/17 15/15/17 14/14/17
f 7/8/18 8/9/18 15/15/18
f 15/15/19 17/16/19 16/17/19
f 15/15/20 16/17/20 14/14/20
f 15/15/21 8/9/21 17/16/21
f 17/18/22 19/19/22 16/20/22
f 8/9/23 18/21/23 17/16/23
f 18/22/24 20/23/24 17/18/24
f 17/18/25 20/23/25 19/19/25
f 18/22/26 23/24/26 20/23/26
f 20/23/27 22/25/27 21/26/27
f 20/23/28 21/26/28 19/19/28
f 20/23/29 23/24/29 22/25/29
f 4/5/30 23/27/30 18/21/30
f 3/3/31 24/28/31 23/27/31
f 23/24/32 24/29/32 22/25/32
f 4/5/33 3/3/33 23/27/33
f 3/3/34 25/30/34 24/28/34
f 24/29/35 25/31/35 26/32/35
f 24/29/36 26/32/36 22/25/36
f 26/32/37 29/33/37 27/34/37
f 26/32/38 27/34/38 28/35/38
f 22/25/39 26/32/39 28/35/39
f 26/32/40 25/31/40 29/33/40
f 29/33/41 31/36/41 27/34/41
f 25/31/42 30/37/42 29/33/42
f 30/37/43 32/38/43 29/33/43
f 29/33/44 32/38/44 31/36/44
f 30/39/45 35/40/45 32/41/45
f 32/41/46 34/42/46 33/43/46
f 32/38/47 33/44/47 31/36/47
f 32/41/48 35/40/48 34/42/48
f 2/2/49 35/40/49 30/39/49
f 5/4/50 10/10/50 35/40/50
f 35/40/51 10/10/51 34/42/51
f 2/2/52 5/4/52 35/40/52
f 34/42/53 36/45/53 33/43/53
f 10/10/54 11/11/54 34/42/54
f 34/42/55 11/11/55 36/45/55
f 33/44/56 36/46/56 37/47/56
f 11/11/57 13/13/57 36/45/57
f 36/46/58 13/48/58 38/49/58
f 37/47/59 36/46/59 38/49/59
f 37/47/60 38/49/60 39/50/60
f 38/49/61 40/51/61 39/50/61
f 13/48/62 14/52/62 38/49/62
f 38/49/63 14/52/63 40/51/63
f 14/52/64 16/20/64 40/51/64
f 16/20/65 19/19/65 40/51/65
f 40/51/66 41/53/66 39/50/66
f 40/51/67 19/19/67 41/53/67
f 19/19/68 21/26/68 41/53/68
f 21/26/69 28/35/69 41/53/69
f 41/53/70 42/54/70 39/50/70
f 41/53/71 28/35/71 42/54/71
f 28/35/72 27/34/72 42/54/72
f 27/34/73 31/36/73 42/54/73
f 42/54/74 37/47/74 39/50/74
f 42/54/75 31/36/75 37/47/75
f 31/36/76 33/44/76 37/47/76
f 2/2/77 30/39/77 25/30/77
f 22/25/78 28/35/78 21/26/78
f 3/3/79 2/2/79 25/30/79
f 4/5/80 18/21/80 8/9/80
f 43/55/81 56/56/81 55/57/81
f 44/58/82 56/56/82 58/59/82
f 43/55/83 55/57/83 60/60/83
f 43/55/84 60/60/84 62/61/84
f 43/55/85 62/61/85 59/62/85
f 44/58/86 58/59/86 65/63/86
f 45/64/87 57/65/87 67/66/87
f 46/67/88 61/68/88 69/69/88
f 47/70/89 63/71/89 71/72/89
f 48/73/90 64/74/90 73/75/90
f 44/76/91 65/77/91 68/78/91
f 45/64/92 67/66/92 70/79/92
f 46/67/36 69/69/36 72/80/36
f 47/70/93 71/72/93 74/81/93
f 48/73/94 73/75/94 66/82/94
f 49/83/95 75/84/95 80/85/95
f 50/86/96 76/87/96 82/88/96
f 51/89/97 77/90/97 83/91/97
f 52/92/98 78/93/98 84/94/98
f 53/95/99 79/96/99 81/97/99
f 81/97/100 84/98/100 54/99/100
f 81/97/101 79/96/101 84/98/101
f 79/100/102 52/92/102 84/94/102
f 84/98/103 83/101/103 54/99/103
f 84/94/104 78/93/104 83/91/104
f 78/93/105 51/89/105 83/91/105
f 83/101/70 82/88/70 54/99/70
f 83/101/71 77/102/71 82/88/71
f 77/102/106 50/86/106 82/88/106
f 82/88/107 80/85/107 54/99/107
f 82/88/108 76/87/108 80/85/108
f 76/87/109 49/83/109 80/85/109
f 80/85/110 81/97/110 54/99/110
f 80/85/111 75/84/111 81/97/111
f 75/84/112 53/95/112 81/97/112
f 66/82/113 79/100/113 53/103/113
f 66/82/114 73/75/114 79/100/114
f 73/75/115 52/92/115 79/100/115
f 74/81/116 78/93/116 52/92/116
f 74/81/117 71/72/117 78/93/117
f 71/72/118 51/89/118 78/93/118
f 72/80/119 77/90/119 51/89/119
f 72/80/39 69/69/39 77/90/39
f 69/104/120 50/86/120 77/102/120
f 70/79/121 76/87/121 50/86/121
f 70/79/122 67/66/122 76/87/122
f 67/66/123 49/83/123 76/87/123
f 68/78/124 75/84/124 49/83/124
f 68/78/125 65/77/125 75/84/125
f 65/77/126 53/95/126 75/84/126
f 73/75/127 74/81/127 52/92/127
f 73/75/128 64/74/128 74/81/128
f 64/74/129 47/70/129 74/81/129
f 71/72/130 72/80/130 51/89/130
f 71/72/131 63/71/131 72/80/131
f 63/71/132 46/67/132 72/80/132
f 69/104/133 70/79/133 50/86/133
f 69/104/134 61/105/134 70/79/134
f 61/105/135 45/64/135 70/79/135
f 67/66/136 68/78/136 49/83/136
f 67/66/137 57/65/137 68/78/137
f 57/65/138 44/76/138 68/78/138
f 65/63/14 66/82/14 53/103/14
f 65/63/13 58/59/13 66/82/13
f 58/59/139 48/73/139 66/82/139
f 59/62/140 64/74/140 48/73/140
f 59/62/141 62/61/141 64/74/141
f 62/61/142 47/70/142 64/74/142
f 62/61/143 63/71/143 47/70/143
f 62/61/144 60/60/144 63/71/144
f 60/60/145 46/67/145 63/71/145
f 60/60/146 61/68/146 46/67/146
f 60/60/147 55/57/147 61/68/147
f 55/57/148 45/106/148 61/68/148
f 58/59/149 59/62/149 48/73/149
f 58/59/9 56/56/9 59/62/9
f 56/56/5 43/55/5 59/62/5
f 55/57/150 57/107/150 45/106/150
f 55/57/151 56/56/151 57/107/151
f 56/56/152 44/58/152 57/107/152
