# Blender 4.4.1
# www.blender.org
mtllib market.mtl
o Cube
v 2.000000 1.000000 -1.000000
v 2.000000 -1.000000 -1.000000
v 2.000000 1.000000 1.000000
v 2.000000 -1.000000 1.000000
v -2.000000 1.000000 -1.000000
v -2.000000 -1.000000 -1.000000
v -2.000000 1.000000 1.000000
v -2.000000 -1.000000 1.000000
v 2.000000 0.728844 -1.000000
v 2.000000 0.604489 -1.000000
v 2.000000 0.395511 -1.000000
v 2.000000 0.271156 -1.000000
v 2.000000 0.062178 -1.000000
v 2.000000 -0.062178 -1.000000
v 2.000000 -0.271156 -1.000000
v 2.000000 -0.395511 -1.000000
v 2.000000 -0.604489 -1.000000
v 2.000000 -0.728844 -1.000000
v -2.000000 -0.728844 1.000000
v -2.000000 -0.604489 1.000000
v -2.000000 -0.395511 1.000000
v -2.000000 -0.271156 1.000000
v -2.000000 -0.062178 1.000000
v -2.000000 0.062178 1.000000
v -2.000000 0.271156 1.000000
v -2.000000 0.395511 1.000000
v -2.000000 0.604489 1.000000
v -2.000000 0.728844 1.000000
v 2.000000 0.728844 1.000000
v 2.000000 0.604489 1.000000
v 2.000000 0.395511 1.000000
v 2.000000 0.271156 1.000000
v 2.000000 0.062178 1.000000
v 2.000000 -0.062178 1.000000
v 2.000000 -0.271156 1.000000
v 2.000000 -0.395511 1.000000
v 2.000000 -0.604489 1.000000
v 2.000000 -0.728844 1.000000
v -2.000000 0.604489 -1.000000
v -2.000000 0.728844 -1.000000
v -2.000000 0.271156 -1.000000
v -2.000000 0.395511 -1.000000
v -2.000000 -0.062178 -1.000000
v -2.000000 0.062178 -1.000000
v -2.000000 -0.395511 -1.000000
v -2.000000 -0.271156 -1.000000
v -2.000000 -0.728844 -1.000000
v -2.000000 -0.604489 -1.000000
v 1.930718 0.965359 -0.965359
v 1.915147 -1.000000 -0.957574
v 1.930718 0.965359 0.965359
v 1.915147 -1.000000 0.957574
v -1.930718 0.965359 -0.965359
v -1.915147 -1.000000 -0.957574
v -1.930718 0.965359 0.965359
v -1.915147 -1.000000 0.957574
v 1.915147 0.728844 -0.957574
v 1.915147 0.604489 -0.957574
v 1.915147 0.395511 -0.957574
v 1.915147 0.271156 -0.957574
v 1.915147 0.062178 -0.957574
v 1.915147 -0.062178 -0.957574
v 1.915147 -0.271156 -0.957574
v 1.915147 -0.395511 -0.957574
v 1.915147 -0.604489 -0.957574
v 1.915147 -0.728844 -0.957574
v -1.915147 -0.728844 0.957574
v -1.915147 -0.604489 0.957574
v -1.915147 -0.395511 0.957574
v -1.915147 -0.271156 0.957574
v -1.915147 -0.062178 0.957574
v -1.915147 0.062178 0.957574
v -1.915147 0.271156 0.957574
v -1.915147 0.395511 0.957574
v -1.915147 0.604489 0.957574
v -1.915147 0.728844 0.957574
v 1.915147 0.728844 0.957574
v 1.915147 0.604489 0.957574
v 1.915147 0.395511 0.957574
v 1.915147 0.271156 0.957574
v 1.915147 0.062178 0.957574
v 1.915147 -0.062178 0.957574
v 1.915147 -0.271156 0.957574
v 1.915147 -0.395511 0.957574
v 1.915147 -0.604489 0.957574
v 1.915147 -0.728844 0.957574
v -1.915147 0.604489 -0.957574
v -1.915147 0.728844 -0.957574
v -1.915147 0.271156 -0.957574
v -1.915147 0.395511 -0.957574
v -1.915147 -0.062178 -0.957574
v -1.915147 0.062178 -0.957574
v -1.915147 -0.395511 -0.957574
v -1.915147 -0.271156 -0.957574
v -1.915147 -0.728844 -0.957574
v -1.915147 -0.604489 -0.957574
vn -0.0000 -0.0000 1.0000
vn -0.0000 -0.0000 -1.0000
vn 1.0000 -0.0000 -0.0000
vn -1.0000 -0.0000 -0.0000
vn -0.0000 1.0000 -0.0000
vn -0.0000 0.0329 -0.9995
vn -0.9978 0.0657 -0.0000
vn 0.9978 0.0657 -0.0000
vn -0.0000 0.0329 0.9995
vn -0.0000 -1.0000 -0.0000
vt 0.591105 0.750000
vt 0.625000 0.750000
vt 0.625000 1.000000
vt 0.591106 1.000000
vt 0.549439 0.250000
vt 0.575561 0.250000
vt 0.575561 0.500000
vt 0.549439 0.500000
vt 0.575561 0.750000
vt 0.549439 0.750000
vt 0.375000 0.750000
vt 0.408894 0.750000
vt 0.408894 1.000000
vt 0.375000 1.000000
vt 0.375000 0.500000
vt 0.408894 0.500000
vt 0.424439 0.500000
vt 0.450561 0.500000
vt 0.450561 0.750000
vt 0.424439 0.750000
vt 0.466106 0.500000
vt 0.492228 0.500000
vt 0.492228 0.750000
vt 0.466106 0.750000
vt 0.507772 0.500000
vt 0.533894 0.500000
vt 0.533894 0.750000
vt 0.507772 0.750000
vt 0.375000 0.250000
vt 0.408894 0.250000
vt 0.424439 0.250000
vt 0.450561 0.250000
vt 0.466106 0.250000
vt 0.492228 0.250000
vt 0.507772 0.250000
vt 0.533894 0.250000
vt 0.591106 0.500000
vt 0.625000 0.500000
vt 0.591105 0.750000
vt 0.450561 1.000000
vt 0.424439 1.000000
vt 0.375000 0.000000
vt 0.408895 0.000000
vt 0.533894 1.000000
vt 0.507772 1.000000
vt 0.549439 0.750000
vt 0.575561 0.750000
vt 0.575561 1.000000
vt 0.549439 1.000000
vt 0.591106 0.000000
vt 0.625000 0.000000
vt 0.625000 0.250000
vt 0.591106 0.250000
vt 0.424439 0.000000
vt 0.450561 0.000000
vt 0.466106 0.750000
vt 0.492228 1.000000
vt 0.466106 1.000000
vt 0.466106 0.000000
vt 0.492228 0.000000
vt 0.507772 0.000000
vt 0.533894 0.000000
vt 0.549439 0.000000
vt 0.575561 0.000000
s 0
usemtl Material.001
f 29/1/1 3/2/1 7/3/1 28/4/1
f 42/5/2 39/6/2 10/7/2 11/8/2
f 11/8/3 10/7/3 30/9/3 31/10/3
f 4/11/1 38/12/1 19/13/1 8/14/1
f 2/15/3 18/16/3 38/12/3 4/11/3
f 17/17/3 16/18/3 36/19/3 37/20/3
f 15/21/3 14/22/3 34/23/3 35/24/3
f 13/25/3 12/26/3 32/27/3 33/28/3
f 6/29/2 47/30/2 18/16/2 2/15/2
f 48/31/2 45/32/2 16/18/2 17/17/2
f 46/33/2 43/34/2 14/22/2 15/21/2
f 44/35/2 41/36/2 12/26/2 13/25/2
f 9/37/3 1/38/3 3/2/3 29/39/3
f 37/20/1 36/19/1 21/40/1 20/41/1
f 8/42/4 19/43/4 47/30/4 6/29/4
f 33/28/1 32/27/1 25/44/1 24/45/1
f 31/46/1 30/47/1 27/48/1 26/49/1
f 28/50/4 7/51/4 5/52/4 40/53/4
f 20/54/4 21/55/4 45/32/4 48/31/4
f 35/56/1 34/23/1 23/57/1 22/58/1
f 22/59/4 23/60/4 43/34/4 46/33/4
f 24/61/4 25/62/4 41/36/4 44/35/4
f 26/63/4 27/64/4 39/6/4 42/5/4
f 40/53/2 5/52/2 1/38/2 9/37/2
f 3/2/5 1/38/5 5/52/5 7/51/5
f 77/1/6 76/4/6 55/3/6 51/2/6
f 90/5/1 59/8/1 58/7/1 87/6/1
f 59/8/4 79/10/4 78/9/4 58/7/4
f 52/11/2 56/14/2 67/13/2 86/12/2
f 50/15/4 52/11/4 86/12/4 66/16/4
f 65/17/4 85/20/4 84/19/4 64/18/4
f 63/21/4 83/24/4 82/23/4 62/22/4
f 61/25/4 81/28/4 80/27/4 60/26/4
f 54/29/1 50/15/1 66/16/1 95/30/1
f 96/31/1 65/17/1 64/18/1 93/32/1
f 94/33/1 63/21/1 62/22/1 91/34/1
f 92/35/1 61/25/1 60/26/1 89/36/1
f 57/37/7 77/39/7 51/2/7 49/38/7
f 85/20/2 68/41/2 69/40/2 84/19/2
f 56/42/3 54/29/3 95/30/3 67/43/3
f 81/28/2 72/45/2 73/44/2 80/27/2
f 79/46/2 74/49/2 75/48/2 78/47/2
f 76/50/8 88/53/8 53/52/8 55/51/8
f 68/54/3 96/31/3 93/32/3 69/55/3
f 83/56/2 70/58/2 71/57/2 82/23/2
f 70/59/3 94/33/3 91/34/3 71/60/3
f 72/61/3 92/35/3 89/36/3 73/62/3
f 74/63/3 90/5/3 87/6/3 75/64/3
f 88/53/9 57/37/9 49/38/9 53/52/9
f 51/2/10 55/51/10 53/52/10 49/38/10
f 8/42/10 6/29/10 54/29/10 56/42/10
f 6/29/10 2/15/10 50/15/10 54/29/10
f 4/11/10 8/14/10 56/14/10 52/11/10
f 2/15/10 4/11/10 52/11/10 50/15/10
f 48/31/10 17/17/10 65/17/10 96/31/10
f 18/16/5 47/30/5 95/30/5 66/16/5
f 46/33/10 15/21/10 63/21/10 94/33/10
f 16/18/5 45/32/5 93/32/5 64/18/5
f 44/35/10 13/25/10 61/25/10 92/35/10
f 14/22/5 43/34/5 91/34/5 62/22/5
f 42/5/10 11/8/10 59/8/10 90/5/10
f 12/26/5 41/36/5 89/36/5 60/26/5
f 40/53/10 9/37/10 57/37/10 88/53/10
f 10/7/5 39/6/5 87/6/5 58/7/5
f 17/17/10 37/20/10 85/20/10 65/17/10
f 38/12/5 18/16/5 66/16/5 86/12/5
f 15/21/10 35/24/10 83/24/10 63/21/10
f 36/19/5 16/18/5 64/18/5 84/19/5
f 13/25/10 33/28/10 81/28/10 61/25/10
f 34/23/5 14/22/5 62/22/5 82/23/5
f 11/8/10 31/10/10 79/10/10 59/8/10
f 32/27/5 12/26/5 60/26/5 80/27/5
f 9/37/10 29/39/10 77/39/10 57/37/10
f 30/9/5 10/7/5 58/7/5 78/9/5
f 20/54/10 48/31/10 96/31/10 68/54/10
f 47/30/5 19/43/5 67/43/5 95/30/5
f 22/59/10 46/33/10 94/33/10 70/59/10
f 45/32/5 21/55/5 69/55/5 93/32/5
f 24/61/10 44/35/10 92/35/10 72/61/10
f 43/34/5 23/60/5 71/60/5 91/34/5
f 26/63/10 42/5/10 90/5/10 74/63/10
f 41/36/5 25/62/5 73/62/5 89/36/5
f 28/50/10 40/53/10 88/53/10 76/50/10
f 39/6/5 27/64/5 75/64/5 87/6/5
f 37/20/10 20/41/10 68/41/10 85/20/10
f 19/13/5 38/12/5 86/12/5 67/13/5
f 35/56/10 22/58/10 70/58/10 83/56/10
f 21/40/5 36/19/5 84/19/5 69/40/5
f 33/28/10 24/45/10 72/45/10 81/28/10
f 23/57/5 34/23/5 82/23/5 71/57/5
f 31/46/10 26/49/10 74/49/10 79/46/10
f 25/44/5 32/27/5 80/27/5 73/44/5
f 29/1/10 28/4/10 76/4/10 77/1/10
f 27/48/5 30/47/5 78/47/5 75/48/5
o Cube.001
v -1.915608 -1.400536 0.959307
v -1.915608 0.999465 0.959307
v -1.915608 -1.400536 0.596240
v -1.915608 0.999465 0.596240
v -1.552540 -1.400536 0.959307
v -1.552540 0.999465 0.959307
v -1.552540 -1.400536 0.596240
v -1.552540 0.999465 0.596240
v 1.915613 -1.400536 0.959307
v 1.915613 0.999465 0.959307
v 1.915613 -1.400536 0.596240
v 1.915613 0.999465 0.596240
v 1.552545 -1.400536 0.959307
v 1.552545 0.999465 0.959307
v 1.552545 -1.400536 0.596240
v 1.552545 0.999465 0.596240
v -1.915607 -1.400536 -0.959310
v -1.915607 0.999465 -0.959310
v -1.915607 -1.400536 -0.596242
v -1.915607 0.999465 -0.596242
v -1.552539 -1.400536 -0.959310
v -1.552539 0.999465 -0.959310
v -1.552539 -1.400536 -0.596242
v -1.552539 0.999465 -0.596242
v 1.915613 -1.400536 -0.959310
v 1.915613 0.999465 -0.959310
v 1.915613 -1.400536 -0.596242
v 1.915613 0.999465 -0.596242
v 1.552545 -1.400536 -0.959310
v 1.552545 0.999465 -0.959310
v 1.552545 -1.400536 -0.596242
v 1.552545 0.999465 -0.596242
vn -1.0000 -0.0000 -0.0000
vn -0.0000 -0.0000 -1.0000
vn 1.0000 -0.0000 -0.0000
vn -0.0000 -0.0000 1.0000
vn -0.0000 -1.0000 -0.0000
vn -0.0000 1.0000 -0.0000
vt 0.375000 0.000000
vt 0.625000 0.000000
vt 0.625000 0.250000
vt 0.375000 0.250000
vt 0.625000 0.500000
vt 0.375000 0.500000
vt 0.625000 0.750000
vt 0.375000 0.750000
vt 0.625000 1.000000
vt 0.375000 1.000000
vt 0.125000 0.500000
vt 0.125000 0.750000
vt 0.875000 0.500000
vt 0.875000 0.750000
s 0
usemtl Material.001
f 97/65/11 98/66/11 100/67/11 99/68/11
f 99/68/12 100/67/12 104/69/12 103/70/12
f 103/70/13 104/69/13 102/71/13 101/72/13
f 101/72/14 102/71/14 98/73/14 97/74/14
f 99/75/15 103/70/15 101/72/15 97/76/15
f 104/69/16 100/77/16 98/78/16 102/71/16
f 105/65/13 107/68/13 108/67/13 106/66/13
f 107/68/12 111/70/12 112/69/12 108/67/12
f 111/70/11 109/72/11 110/71/11 112/69/11
f 109/72/14 105/74/14 106/73/14 110/71/14
f 107/75/15 105/76/15 109/72/15 111/70/15
f 112/69/16 110/71/16 106/78/16 108/77/16
f 113/65/11 115/68/11 116/67/11 114/66/11
f 115/68/14 119/70/14 120/69/14 116/67/14
f 119/70/13 117/72/13 118/71/13 120/69/13
f 117/72/12 113/74/12 114/73/12 118/71/12
f 115/75/15 113/76/15 117/72/15 119/70/15
f 121/65/13 122/66/13 124/67/13 123/68/13
f 123/68/14 124/67/14 128/69/14 127/70/14
f 127/70/11 128/69/11 126/71/11 125/72/11
f 125/72/12 126/71/12 122/73/12 121/74/12
f 123/75/15 127/70/15 125/72/15 121/76/15
f 128/69/16 124/77/16 122/78/16 126/71/16
f 118/71/16 114/73/16 120/69/16
f 114/73/16 116/67/16 120/69/16
o Cube.004
v -1.874074 0.460536 -0.914750
v -1.874074 0.460536 -0.634750
v -1.594074 0.460536 -0.914750
v -1.594074 0.460536 -0.634750
v -1.874074 2.965571 -0.914750
v -1.874074 3.065845 -0.634750
v -1.594074 2.965571 -0.914750
v -1.594074 3.065845 -0.634750
vn -0.0000 -0.0000 -1.0000
vn -0.0000 0.9414 -0.3372
vn -0.0000 -0.0000 1.0000
vn 1.0000 -0.0000 -0.0000
vn -1.0000 -0.0000 -0.0000
vt 0.625000 0.750000
vt 0.625000 1.000000
vt 0.625000 0.000000
vt 0.625000 0.250000
vt 0.625000 0.500000
s 0
usemtl Material.001
f 131/79/17 129/80/17 133/80/17 135/79/17
f 133/81/18 134/82/18 136/83/18 135/79/18
f 130/82/19 132/83/19 136/83/19 134/82/19
f 132/83/20 131/79/20 135/79/20 136/83/20
f 129/81/21 130/82/21 134/82/21 133/81/21
o Cube.005
v 1.594857 0.460536 -0.914750
v 1.594857 0.460536 -0.634750
v 1.874857 0.460536 -0.914750
v 1.874857 0.460536 -0.634750
v 1.594857 2.965571 -0.914750
v 1.594857 3.065845 -0.634750
v 1.874857 2.965571 -0.914750
v 1.874857 3.065845 -0.634750
vn -0.0000 -0.0000 -1.0000
vn -0.0000 0.9414 -0.3372
vn -0.0000 -0.0000 1.0000
vn 1.0000 -0.0000 -0.0000
vn -1.0000 -0.0000 -0.0000
vt 0.625000 0.750000
vt 0.625000 1.000000
vt 0.625000 0.000000
vt 0.625000 0.250000
vt 0.625000 0.500000
s 0
usemtl Material.001
f 139/84/22 137/85/22 141/85/22 143/84/22
f 141/86/23 142/87/23 144/88/23 143/84/23
f 138/87/24 140/88/24 144/88/24 142/87/24
f 140/88/25 139/84/25 143/84/25 144/88/25
f 137/86/26 138/87/26 142/87/26 141/86/26
o Cube.002
v -1.874074 0.460536 0.610647
v -1.874074 0.460536 0.890647
v -1.594074 0.460536 0.610647
v -1.594074 0.460536 0.890647
v -1.874074 3.437007 0.610647
v -1.874074 3.537280 0.890647
v -1.594074 3.437007 0.610647
v -1.594074 3.537280 0.890647
vn -0.0000 -0.0000 -1.0000
vn -0.0000 0.9414 -0.3372
vn -0.0000 -0.0000 1.0000
vn 1.0000 -0.0000 -0.0000
vn -1.0000 -0.0000 -0.0000
vt 0.625000 0.750000
vt 0.625000 1.000000
vt 0.625000 0.000000
vt 0.625000 0.250000
vt 0.625000 0.500000
s 0
usemtl Material.001
f 147/89/27 145/90/27 149/90/27 151/89/27
f 149/91/28 150/92/28 152/93/28 151/89/28
f 146/92/29 148/93/29 152/93/29 150/92/29
f 148/93/30 147/89/30 151/89/30 152/93/30
f 145/91/31 146/92/31 150/92/31 149/91/31
o Cube.003
v 1.594857 0.460536 0.610647
v 1.594857 0.460536 0.890647
v 1.874857 0.460536 0.610647
v 1.874857 0.460536 0.890647
v 1.594857 3.437007 0.610647
v 1.594857 3.537280 0.890647
v 1.874857 3.437007 0.610647
v 1.874857 3.537280 0.890647
vn -0.0000 -0.0000 -1.0000
vn -0.0000 0.9414 -0.3372
vn -0.0000 -0.0000 1.0000
vn 1.0000 -0.0000 -0.0000
vn -1.0000 -0.0000 -0.0000
vt 0.625000 0.750000
vt 0.625000 1.000000
vt 0.625000 0.000000
vt 0.625000 0.250000
vt 0.625000 0.500000
s 0
usemtl Material.001
f 155/94/32 153/95/32 157/95/32 159/94/32
f 157/96/33 158/97/33 160/98/33 159/94/33
f 154/97/34 156/98/34 160/98/34 158/97/34
f 156/98/35 155/94/35 159/94/35 160/98/35
f 153/96/36 154/97/36 158/97/36 157/96/36
o Cube.006
v -3.002533 3.859487 1.937164
v -3.002533 4.049889 1.875952
v -3.002533 2.635251 -1.870886
v -3.002533 2.825654 -1.932098
v 2.997467 3.859487 1.937164
v 2.997467 4.049889 1.875952
v 2.997467 2.635251 -1.870886
v 2.997467 2.825654 -1.932098
v 2.262494 2.635251 -1.870886
v 1.595828 2.635251 -1.870886
v 0.929161 2.635251 -1.870886
v 0.262494 2.635251 -1.870886
v -0.404172 2.635251 -1.870886
v -1.070839 2.635251 -1.870886
v -1.737506 2.635251 -1.870886
v -2.404172 2.635251 -1.870886
v -2.404172 2.825654 -1.932098
v -1.737506 2.825654 -1.932098
v -1.070839 2.825654 -1.932098
v -0.404172 2.825654 -1.932098
v 0.262494 2.825654 -1.932098
v 0.929161 2.825654 -1.932098
v 1.595828 2.825654 -1.932098
v 2.262494 2.825654 -1.932098
v -2.404172 3.859487 1.937164
v -1.737506 3.859487 1.937164
v -1.070839 3.859487 1.937164
v -0.404172 3.859487 1.937164
v 0.262494 3.859487 1.937164
v 0.929161 3.859487 1.937164
v 1.595828 3.859487 1.937164
v 2.262494 3.859487 1.937164
v 2.262494 4.049889 1.875952
v 1.595828 4.049889 1.875952
v 0.929161 4.049889 1.875952
v 0.262494 4.049889 1.875952
v -0.404172 4.049889 1.875952
v -1.070839 4.049889 1.875952
v -1.737506 4.049889 1.875952
v -2.404172 4.049889 1.875952
vn -1.0000 -0.0000 -0.0000
vn -0.0000 -0.3061 -0.9520
vn 1.0000 -0.0000 -0.0000
vn -0.0000 0.3061 0.9520
vn -0.0000 -0.9520 0.3061
vn -0.0000 0.9520 -0.3061
vt 0.375000 0.000000
vt 0.625000 0.000000
vt 0.625000 0.250000
vt 0.375000 0.250000
vt 0.375000 0.469376
vt 0.625000 0.469376
vt 0.625000 0.500000
vt 0.375000 0.500000
vt 0.625000 0.750000
vt 0.375000 0.750000
vt 0.375000 0.975068
vt 0.625000 0.975068
vt 0.625000 1.000000
vt 0.375000 1.000000
vt 0.344376 0.500000
vt 0.344376 0.750000
vt 0.850068 0.500000
vt 0.875000 0.500000
vt 0.875000 0.750000
vt 0.850068 0.750000
vt 0.655624 0.500000
vt 0.655624 0.750000
vt 0.683402 0.500000
vt 0.711179 0.500000
vt 0.711179 0.750000
vt 0.683402 0.750000
vt 0.738957 0.500000
vt 0.766735 0.500000
vt 0.766735 0.750000
vt 0.738957 0.750000
vt 0.794513 0.500000
vt 0.822290 0.500000
vt 0.822291 0.750000
vt 0.794513 0.750000
vt 0.125000 0.500000
vt 0.149932 0.500000
vt 0.149932 0.750000
vt 0.125000 0.750000
vt 0.177709 0.500000
vt 0.205487 0.500000
vt 0.205487 0.750000
vt 0.177709 0.750000
vt 0.233265 0.500000
vt 0.261043 0.500000
vt 0.261043 0.750000
vt 0.233265 0.750000
vt 0.288821 0.500000
vt 0.316598 0.500000
vt 0.316598 0.750000
vt 0.288821 0.750000
vt 0.625000 0.780624
vt 0.375000 0.780624
vt 0.375000 0.808402
vt 0.625000 0.808402
vt 0.625000 0.836179
vt 0.375000 0.836179
vt 0.375000 0.863957
vt 0.625000 0.863957
vt 0.625000 0.891735
vt 0.375000 0.891735
vt 0.375000 0.919513
vt 0.625000 0.919513
vt 0.625000 0.947290
vt 0.375000 0.947291
vt 0.625000 0.274932
vt 0.375000 0.274932
vt 0.375000 0.302709
vt 0.625000 0.302709
vt 0.625000 0.330487
vt 0.375000 0.330487
vt 0.375000 0.358265
vt 0.625000 0.358265
vt 0.625000 0.386043
vt 0.375000 0.386043
vt 0.375000 0.413821
vt 0.625000 0.413821
vt 0.625000 0.441598
vt 0.375000 0.441598
s 0
usemtl Material
f 161/99/37 162/100/37 164/101/37 163/102/37
f 169/103/38 184/104/38 168/105/38 167/106/38
f 167/106/39 168/105/39 166/107/39 165/108/39
f 185/109/40 200/110/40 162/111/40 161/112/40
f 169/113/41 167/106/41 165/108/41 192/114/41
f 177/115/42 164/116/42 162/117/42 200/118/42
f 168/105/42 184/119/42 193/120/42 166/107/42
f 183/121/42 182/122/42 195/123/42 194/124/42
f 181/125/42 180/126/42 197/127/42 196/128/42
f 179/129/42 178/130/42 199/131/42 198/132/42
f 163/133/41 176/134/41 185/135/41 161/136/41
f 175/137/41 174/138/41 187/139/41 186/140/41
f 173/141/41 172/142/41 189/143/41 188/144/41
f 171/145/41 170/146/41 191/147/41 190/148/41
f 165/108/40 166/107/40 193/149/40 192/150/40
f 191/151/40 194/152/40 195/153/40 190/154/40
f 189/155/40 196/156/40 197/157/40 188/158/40
f 187/159/40 198/160/40 199/161/40 186/162/40
f 163/102/38 164/101/38 177/163/38 176/164/38
f 175/165/38 178/166/38 179/167/38 174/168/38
f 173/169/38 180/170/38 181/171/38 172/172/38
f 171/173/38 182/174/38 183/175/38 170/176/38
o Cube.007
v 2.262494 2.635251 -1.870886
v 1.595828 2.635251 -1.870886
v 0.929161 2.635251 -1.870886
v 0.262494 2.635251 -1.870886
v -0.404172 2.635251 -1.870886
v -1.070839 2.635251 -1.870886
v -1.737506 2.635251 -1.870886
v -2.404172 2.635251 -1.870886
v -2.404172 2.825654 -1.932098
v -1.737506 2.825654 -1.932098
v -1.070839 2.825654 -1.932098
v -0.404172 2.825654 -1.932098
v 0.262494 2.825654 -1.932098
v 0.929161 2.825654 -1.932098
v 1.595828 2.825654 -1.932098
v 2.262494 2.825654 -1.932098
v -2.404172 3.859487 1.937164
v -1.737506 3.859487 1.937164
v -1.070839 3.859487 1.937164
v -0.404172 3.859487 1.937164
v 0.262494 3.859487 1.937164
v 0.929161 3.859487 1.937164
v 1.595828 3.859487 1.937164
v 2.262494 3.859487 1.937164
v 2.262494 4.049889 1.875952
v 1.595828 4.049889 1.875952
v 0.929161 4.049889 1.875952
v 0.262494 4.049889 1.875952
v -0.404172 4.049889 1.875952
v -1.070839 4.049889 1.875952
v -1.737506 4.049889 1.875952
v -2.404172 4.049889 1.875952
vn -0.0000 0.9520 -0.3061
vn -0.0000 -0.9520 0.3061
vn -0.0000 0.3061 0.9520
vn -0.0000 -0.3061 -0.9520
vt 0.655624 0.500000
vt 0.683402 0.500000
vt 0.683402 0.750000
vt 0.655624 0.750000
vt 0.711179 0.500000
vt 0.738957 0.500000
vt 0.738957 0.750000
vt 0.711179 0.750000
vt 0.766735 0.500000
vt 0.794513 0.500000
vt 0.794513 0.750000
vt 0.766735 0.750000
vt 0.822290 0.500000
vt 0.850068 0.500000
vt 0.850068 0.750000
vt 0.822291 0.750000
vt 0.149932 0.500000
vt 0.177709 0.500000
vt 0.177709 0.750000
vt 0.149932 0.750000
vt 0.205487 0.500000
vt 0.233265 0.500000
vt 0.233265 0.750000
vt 0.205487 0.750000
vt 0.261043 0.500000
vt 0.288821 0.500000
vt 0.288821 0.750000
vt 0.261043 0.750000
vt 0.316598 0.500000
vt 0.344376 0.500000
vt 0.344376 0.750000
vt 0.316598 0.750000
vt 0.375000 0.780624
vt 0.625000 0.780624
vt 0.625000 0.808402
vt 0.375000 0.808402
vt 0.375000 0.836179
vt 0.625000 0.836179
vt 0.625000 0.863957
vt 0.375000 0.863957
vt 0.375000 0.891735
vt 0.625000 0.891735
vt 0.625000 0.919513
vt 0.375000 0.919513
vt 0.375000 0.947291
vt 0.625000 0.947290
vt 0.625000 0.975068
vt 0.375000 0.975068
vt 0.375000 0.274932
vt 0.625000 0.274932
vt 0.625000 0.302709
vt 0.375000 0.302709
vt 0.375000 0.330487
vt 0.625000 0.330487
vt 0.625000 0.358265
vt 0.375000 0.358265
vt 0.375000 0.386043
vt 0.625000 0.386043
vt 0.625000 0.413821
vt 0.375000 0.413821
vt 0.375000 0.441598
vt 0.625000 0.441598
vt 0.625000 0.469376
vt 0.375000 0.469376
s 0
usemtl Material.002
f 216/177/43 215/178/43 226/179/43 225/180/43
f 214/181/43 213/182/43 228/183/43 227/184/43
f 212/185/43 211/186/43 230/187/43 229/188/43
f 210/189/43 209/190/43 232/191/43 231/192/43
f 208/193/44 207/194/44 218/195/44 217/196/44
f 206/197/44 205/198/44 220/199/44 219/200/44
f 204/201/44 203/202/44 222/203/44 221/204/44
f 202/205/44 201/206/44 224/207/44 223/208/44
f 224/209/45 225/210/45 226/211/45 223/212/45
f 222/213/45 227/214/45 228/215/45 221/216/45
f 220/217/45 229/218/45 230/219/45 219/220/45
f 218/221/45 231/222/45 232/223/45 217/224/45
f 208/225/46 209/226/46 210/227/46 207/228/46
f 206/229/46 211/230/46 212/231/46 205/232/46
f 204/233/46 213/234/46 214/235/46 203/236/46
f 202/237/46 215/238/46 216/239/46 201/240/46
