# Blender 4.4.1
# www.blender.org
mtllib tehtud.mtl
o Cube
v 2.000000 1.000000 -1.000000
v 2.000000 -1.000000 -1.000000
v 2.000000 1.000000 1.000000
v 2.000000 -1.000000 1.000000
v -2.000000 1.000000 -1.000000
v -2.000000 -1.000000 -1.000000
v -2.000000 1.000000 1.000000
v -2.000000 -1.000000 1.000000
v 2.000000 0.728844 -1.000000
v 2.000000 0.604489 -1.000000
v 2.000000 0.395511 -1.000000
v 2.000000 0.271156 -1.000000
v 2.000000 0.062178 -1.000000
v 2.000000 -0.062178 -1.000000
v 2.000000 -0.271156 -1.000000
v 2.000000 -0.395511 -1.000000
v 2.000000 -0.604489 -1.000000
v 2.000000 -0.728844 -1.000000
v -2.000000 -0.728844 1.000000
v -2.000000 -0.604489 1.000000
v -2.000000 -0.395511 1.000000
v -2.000000 -0.271156 1.000000
v -2.000000 -0.062178 1.000000
v -2.000000 0.062178 1.000000
v -2.000000 0.271156 1.000000
v -2.000000 0.395511 1.000000
v -2.000000 0.604489 1.000000
v -2.000000 0.728844 1.000000
v 2.000000 0.728844 1.000000
v 2.000000 0.604489 1.000000
v 2.000000 0.395511 1.000000
v 2.000000 0.271156 1.000000
v 2.000000 0.062178 1.000000
v 2.000000 -0.062178 1.000000
v 2.000000 -0.271156 1.000000
v 2.000000 -0.395511 1.000000
v 2.000000 -0.604489 1.000000
v 2.000000 -0.728844 1.000000
v -2.000000 0.604489 -1.000000
v -2.000000 0.728844 -1.000000
v -2.000000 0.271156 -1.000000
v -2.000000 0.395511 -1.000000
v -2.000000 -0.062178 -1.000000
v -2.000000 0.062178 -1.000000
v -2.000000 -0.395511 -1.000000
v -2.000000 -0.271156 -1.000000
v -2.000000 -0.728844 -1.000000
v -2.000000 -0.604489 -1.000000
v 1.930718 0.965359 -0.965359
v 1.915147 -1.000000 -0.957574
v 1.930718 0.965359 0.965359
v 1.915147 -1.000000 0.957574
v -1.930718 0.965359 -0.965359
v -1.915147 -1.000000 -0.957574
v -1.930718 0.965359 0.965359
v -1.915147 -1.000000 0.957574
v 1.915147 0.728844 -0.957574
v 1.915147 0.604489 -0.957574
v 1.915147 0.395511 -0.957574
v 1.915147 0.271156 -0.957574
v 1.915147 0.062178 -0.957574
v 1.915147 -0.062178 -0.957574
v 1.915147 -0.271156 -0.957574
v 1.915147 -0.395511 -0.957574
v 1.915147 -0.604489 -0.957574
v 1.915147 -0.728844 -0.957574
v -1.915147 -0.728844 0.957574
v -1.915147 -0.604489 0.957574
v -1.915147 -0.395511 0.957574
v -1.915147 -0.271156 0.957574
v -1.915147 -0.062178 0.957574
v -1.915147 0.062178 0.957574
v -1.915147 0.271156 0.957574
v -1.915147 0.395511 0.957574
v -1.915147 0.604489 0.957574
v -1.915147 0.728844 0.957574
v 1.915147 0.728844 0.957574
v 1.915147 0.604489 0.957574
v 1.915147 0.395511 0.957574
v 1.915147 0.271156 0.957574
v 1.915147 0.062178 0.957574
v 1.915147 -0.062178 0.957574
v 1.915147 -0.271156 0.957574
v 1.915147 -0.395511 0.957574
v 1.915147 -0.604489 0.957574
v 1.915147 -0.728844 0.957574
v -1.915147 0.604489 -0.957574
v -1.915147 0.728844 -0.957574
v -1.915147 0.271156 -0.957574
v -1.915147 0.395511 -0.957574
v -1.915147 -0.062178 -0.957574
v -1.915147 0.062178 -0.957574
v -1.915147 -0.395511 -0.957574
v -1.915147 -0.271156 -0.957574
v -1.915147 -0.728844 -0.957574
v -1.915147 -0.604489 -0.957574
vn -0.0000 -0.0000 1.0000
vn -0.0000 -0.0000 -1.0000
vn 1.0000 -0.0000 -0.0000
vn -1.0000 -0.0000 -0.0000
vn -0.0000 1.0000 -0.0000
vn -0.0000 0.0329 -0.9995
vn -0.9978 0.0657 -0.0000
vn 0.9978 0.0657 -0.0000
vn -0.0000 0.0329 0.9995
vn -0.0000 -1.0000 -0.0000
vt 0.591105 0.750000
vt 0.625000 0.750000
vt 0.625000 1.000000
vt 0.591106 1.000000
vt 0.549439 0.250000
vt 0.575561 0.250000
vt 0.575561 0.500000
vt 0.549439 0.500000
vt 0.575561 0.750000
vt 0.549439 0.750000
vt 0.375000 0.750000
vt 0.408894 0.750000
vt 0.408894 1.000000
vt 0.375000 1.000000
vt 0.375000 0.500000
vt 0.408894 0.500000
vt 0.424439 0.500000
vt 0.450561 0.500000
vt 0.450561 0.750000
vt 0.424439 0.750000
vt 0.466106 0.500000
vt 0.492228 0.500000
vt 0.492228 0.750000
vt 0.466106 0.750000
vt 0.507772 0.500000
vt 0.533894 0.500000
vt 0.533894 0.750000
vt 0.507772 0.750000
vt 0.375000 0.250000
vt 0.408894 0.250000
vt 0.424439 0.250000
vt 0.450561 0.250000
vt 0.466106 0.250000
vt 0.492228 0.250000
vt 0.507772 0.250000
vt 0.533894 0.250000
vt 0.591106 0.500000
vt 0.625000 0.500000
vt 0.591105 0.750000
vt 0.450561 1.000000
vt 0.424439 1.000000
vt 0.375000 0.000000
vt 0.408895 0.000000
vt 0.533894 1.000000
vt 0.507772 1.000000
vt 0.549439 0.750000
vt 0.575561 0.750000
vt 0.575561 1.000000
vt 0.549439 1.000000
vt 0.591106 0.000000
vt 0.625000 0.000000
vt 0.625000 0.250000
vt 0.591106 0.250000
vt 0.424439 0.000000
vt 0.450561 0.000000
vt 0.466106 0.750000
vt 0.492228 1.000000
vt 0.466106 1.000000
vt 0.466106 0.000000
vt 0.492228 0.000000
vt 0.507772 0.000000
vt 0.533894 0.000000
vt 0.549439 0.000000
vt 0.575561 0.000000
s 0
usemtl Material.001
f 29/1/1 3/2/1 7/3/1 28/4/1
f 42/5/2 39/6/2 10/7/2 11/8/2
f 11/8/3 10/7/3 30/9/3 31/10/3
f 4/11/1 38/12/1 19/13/1 8/14/1
f 2/15/3 18/16/3 38/12/3 4/11/3
f 17/17/3 16/18/3 36/19/3 37/20/3
f 15/21/3 14/22/3 34/23/3 35/24/3
f 13/25/3 12/26/3 32/27/3 33/28/3
f 6/29/2 47/30/2 18/16/2 2/15/2
f 48/31/2 45/32/2 16/18/2 17/17/2
f 46/33/2 43/34/2 14/22/2 15/21/2
f 44/35/2 41/36/2 12/26/2 13/25/2
f 9/37/3 1/38/3 3/2/3 29/39/3
f 37/20/1 36/19/1 21/40/1 20/41/1
f 8/42/4 19/43/4 47/30/4 6/29/4
f 33/28/1 32/27/1 25/44/1 24/45/1
f 31/46/1 30/47/1 27/48/1 26/49/1
f 28/50/4 7/51/4 5/52/4 40/53/4
f 20/54/4 21/55/4 45/32/4 48/31/4
f 35/56/1 34/23/1 23/57/1 22/58/1
f 22/59/4 23/60/4 43/34/4 46/33/4
f 24/61/4 25/62/4 41/36/4 44/35/4
f 26/63/4 27/64/4 39/6/4 42/5/4
f 40/53/2 5/52/2 1/38/2 9/37/2
f 3/2/5 1/38/5 5/52/5 7/51/5
f 77/1/6 76/4/6 55/3/6 51/2/6
f 90/5/1 59/8/1 58/7/1 87/6/1
f 59/8/4 79/10/4 78/9/4 58/7/4
f 52/11/2 56/14/2 67/13/2 86/12/2
f 50/15/4 52/11/4 86/12/4 66/16/4
f 65/17/4 85/20/4 84/19/4 64/18/4
f 63/21/4 83/24/4 82/23/4 62/22/4
f 61/25/4 81/28/4 80/27/4 60/26/4
f 54/29/1 50/15/1 66/16/1 95/30/1
f 96/31/1 65/17/1 64/18/1 93/32/1
f 94/33/1 63/21/1 62/22/1 91/34/1
f 92/35/1 61/25/1 60/26/1 89/36/1
f 57/37/7 77/39/7 51/2/7 49/38/7
f 85/20/2 68/41/2 69/40/2 84/19/2
f 56/42/3 54/29/3 95/30/3 67/43/3
f 81/28/2 72/45/2 73/44/2 80/27/2
f 79/46/2 74/49/2 75/48/2 78/47/2
f 76/50/8 88/53/8 53/52/8 55/51/8
f 68/54/3 96/31/3 93/32/3 69/55/3
f 83/56/2 70/58/2 71/57/2 82/23/2
f 70/59/3 94/33/3 91/34/3 71/60/3
f 72/61/3 92/35/3 89/36/3 73/62/3
f 74/63/3 90/5/3 87/6/3 75/64/3
f 88/53/9 57/37/9 49/38/9 53/52/9
f 51/2/10 55/51/10 53/52/10 49/38/10
f 8/42/10 6/29/10 54/29/10 56/42/10
f 6/29/10 2/15/10 50/15/10 54/29/10
f 4/11/10 8/14/10 56/14/10 52/11/10
f 2/15/10 4/11/10 52/11/10 50/15/10
f 48/31/10 17/17/10 65/17/10 96/31/10
f 18/16/5 47/30/5 95/30/5 66/16/5
f 46/33/10 15/21/10 63/21/10 94/33/10
f 16/18/5 45/32/5 93/32/5 64/18/5
f 44/35/10 13/25/10 61/25/10 92/35/10
f 14/22/5 43/34/5 91/34/5 62/22/5
f 42/5/10 11/8/10 59/8/10 90/5/10
f 12/26/5 41/36/5 89/36/5 60/26/5
f 40/53/10 9/37/10 57/37/10 88/53/10
f 10/7/5 39/6/5 87/6/5 58/7/5
f 17/17/10 37/20/10 85/20/10 65/17/10
f 38/12/5 18/16/5 66/16/5 86/12/5
f 15/21/10 35/24/10 83/24/10 63/21/10
f 36/19/5 16/18/5 64/18/5 84/19/5
f 13/25/10 33/28/10 81/28/10 61/25/10
f 34/23/5 14/22/5 62/22/5 82/23/5
f 11/8/10 31/10/10 79/10/10 59/8/10
f 32/27/5 12/26/5 60/26/5 80/27/5
f 9/37/10 29/39/10 77/39/10 57/37/10
f 30/9/5 10/7/5 58/7/5 78/9/5
f 20/54/10 48/31/10 96/31/10 68/54/10
f 47/30/5 19/43/5 67/43/5 95/30/5
f 22/59/10 46/33/10 94/33/10 70/59/10
f 45/32/5 21/55/5 69/55/5 93/32/5
f 24/61/10 44/35/10 92/35/10 72/61/10
f 43/34/5 23/60/5 71/60/5 91/34/5
f 26/63/10 42/5/10 90/5/10 74/63/10
f 41/36/5 25/62/5 73/62/5 89/36/5
f 28/50/10 40/53/10 88/53/10 76/50/10
f 39/6/5 27/64/5 75/64/5 87/6/5
f 37/20/10 20/41/10 68/41/10 85/20/10
f 19/13/5 38/12/5 86/12/5 67/13/5
f 35/56/10 22/58/10 70/58/10 83/56/10
f 21/40/5 36/19/5 84/19/5 69/40/5
f 33/28/10 24/45/10 72/45/10 81/28/10
f 23/57/5 34/23/5 82/23/5 71/57/5
f 31/46/10 26/49/10 74/49/10 79/46/10
f 25/44/5 32/27/5 80/27/5 73/44/5
f 29/1/10 28/4/10 76/4/10 77/1/10
f 27/48/5 30/47/5 78/47/5 75/48/5
o Cube.001
v -1.915608 -1.400536 0.959307
v -1.915608 0.999465 0.959307
v -1.915608 -1.400536 0.596240
v -1.915608 0.999465 0.596240
v -1.552540 -1.400536 0.959307
v -1.552540 0.999465 0.959307
v -1.552540 -1.400536 0.596240
v -1.552540 0.999465 0.596240
v 1.915613 -1.400536 0.959307
v 1.915613 0.999465 0.959307
v 1.915613 -1.400536 0.596240
v 1.915613 0.999465 0.596240
v 1.552545 -1.400536 0.959307
v 1.552545 0.999465 0.959307
v 1.552545 -1.400536 0.596240
v 1.552545 0.999465 0.596240
v -1.915607 -1.400536 -0.959310
v -1.915607 0.999465 -0.959310
v -1.915607 -1.400536 -0.596242
v -1.915607 0.999465 -0.596242
v -1.552539 -1.400536 -0.959310
v -1.552539 0.999465 -0.959310
v -1.552539 -1.400536 -0.596242
v -1.552539 0.999465 -0.596242
v 1.915613 -1.400536 -0.959310
v 1.915613 0.999465 -0.959310
v 1.915613 -1.400536 -0.596242
v 1.915613 0.999465 -0.596242
v 1.552545 -1.400536 -0.959310
v 1.552545 0.999465 -0.959310
v 1.552545 -1.400536 -0.596242
v 1.552545 0.999465 -0.596242
vn -1.0000 -0.0000 -0.0000
vn -0.0000 -0.0000 -1.0000
vn 1.0000 -0.0000 -0.0000
vn -0.0000 -0.0000 1.0000
vn -0.0000 -1.0000 -0.0000
vn -0.0000 1.0000 -0.0000
vt 0.375000 0.000000
vt 0.625000 0.000000
vt 0.625000 0.250000
vt 0.375000 0.250000
vt 0.625000 0.500000
vt 0.375000 0.500000
vt 0.625000 0.750000
vt 0.375000 0.750000
vt 0.625000 1.000000
vt 0.375000 1.000000
vt 0.125000 0.500000
vt 0.125000 0.750000
vt 0.875000 0.500000
vt 0.875000 0.750000
s 0
usemtl Material.001
f 97/65/11 98/66/11 100/67/11 99/68/11
f 99/68/12 100/67/12 104/69/12 103/70/12
f 103/70/13 104/69/13 102/71/13 101/72/13
f 101/72/14 102/71/14 98/73/14 97/74/14
f 99/75/15 103/70/15 101/72/15 97/76/15
f 104/69/16 100/77/16 98/78/16 102/71/16
f 105/65/13 107/68/13 108/67/13 106/66/13
f 107/68/12 111/70/12 112/69/12 108/67/12
f 111/70/11 109/72/11 110/71/11 112/69/11
f 109/72/14 105/74/14 106/73/14 110/71/14
f 107/75/15 105/76/15 109/72/15 111/70/15
f 112/69/16 110/71/16 106/78/16 108/77/16
f 113/65/11 115/68/11 116/67/11 114/66/11
f 115/68/14 119/70/14 120/69/14 116/67/14
f 119/70/13 117/72/13 118/71/13 120/69/13
f 117/72/12 113/74/12 114/73/12 118/71/12
f 115/75/15 113/76/15 117/72/15 119/70/15
f 121/65/13 122/66/13 124/67/13 123/68/13
f 123/68/14 124/67/14 128/69/14 127/70/14
f 127/70/11 128/69/11 126/71/11 125/72/11
f 125/72/12 126/71/12 122/73/12 121/74/12
f 123/75/15 127/70/15 125/72/15 121/76/15
f 128/69/16 124/77/16 122/78/16 126/71/16
f 118/71/16 114/73/16 120/69/16
f 114/73/16 116/67/16 120/69/16
o Cube.004
v -1.874074 0.460536 -0.914750
v -1.874074 0.460536 -0.634750
v -1.594074 0.460536 -0.914750
v -1.594074 0.460536 -0.634750
v -1.874074 2.965571 -0.914750
v -1.874074 3.065845 -0.634750
v -1.594074 2.965571 -0.914750
v -1.594074 3.065845 -0.634750
vn -0.0000 -0.0000 -1.0000
vn -0.0000 0.9414 -0.3372
vn -0.0000 -0.0000 1.0000
vn 1.0000 -0.0000 -0.0000
vn -1.0000 -0.0000 -0.0000
vt 0.625000 0.750000
vt 0.625000 1.000000
vt 0.625000 0.000000
vt 0.625000 0.250000
vt 0.625000 0.500000
s 0
usemtl Material.001
f 131/79/17 129/80/17 133/80/17 135/79/17
f 133/81/18 134/82/18 136/83/18 135/79/18
f 130/82/19 132/83/19 136/83/19 134/82/19
f 132/83/20 131/79/20 135/79/20 136/83/20
f 129/81/21 130/82/21 134/82/21 133/81/21
o Cube.005
v 1.594857 0.460536 -0.914750
v 1.594857 0.460536 -0.634750
v 1.874857 0.460536 -0.914750
v 1.874857 0.460536 -0.634750
v 1.594857 2.965571 -0.914750
v 1.594857 3.065845 -0.634750
v 1.874857 2.965571 -0.914750
v 1.874857 3.065845 -0.634750
vn -0.0000 -0.0000 -1.0000
vn -0.0000 0.9414 -0.3372
vn -0.0000 -0.0000 1.0000
vn 1.0000 -0.0000 -0.0000
vn -1.0000 -0.0000 -0.0000
vt 0.625000 0.750000
vt 0.625000 1.000000
vt 0.625000 0.000000
vt 0.625000 0.250000
vt 0.625000 0.500000
s 0
usemtl Material.001
f 139/84/22 137/85/22 141/85/22 143/84/22
f 141/86/23 142/87/23 144/88/23 143/84/23
f 138/87/24 140/88/24 144/88/24 142/87/24
f 140/88/25 139/84/25 143/84/25 144/88/25
f 137/86/26 138/87/26 142/87/26 141/86/26
o Plane
v -3.002533 3.946792 1.927705
v 2.997467 3.946792 1.927705
v -3.002533 2.755252 -1.890702
v 2.997467 2.755252 -1.890702
v -3.002533 2.650321 -1.857958
v -3.002533 3.841860 1.960449
v 2.997467 3.841860 1.960449
v 2.997467 2.650321 -1.857958
v -2.449592 3.946792 1.927705
v -1.904137 3.946792 1.927705
v -1.358683 3.946792 1.927705
v -0.813228 3.946792 1.927705
v -0.267774 3.946792 1.927705
v 0.277681 3.946792 1.927705
v 0.823135 3.946792 1.927705
v 1.368590 3.946792 1.927705
v 1.914044 3.946792 1.927705
v 2.459499 3.946792 1.927705
v 2.459499 2.755252 -1.890702
v 1.914044 2.755252 -1.890702
v 1.368590 2.755252 -1.890702
v 0.823135 2.755252 -1.890702
v 0.277681 2.755252 -1.890702
v -0.267774 2.755252 -1.890702
v -0.813228 2.755252 -1.890702
v -1.358683 2.755252 -1.890702
v -1.904137 2.755252 -1.890702
v -2.449592 2.755252 -1.890702
v -2.449592 3.841860 1.960449
v -1.904137 3.841860 1.960449
v -1.358683 3.841860 1.960449
v -0.813228 3.841860 1.960449
v -0.267774 3.841860 1.960449
v 0.277681 3.841860 1.960449
v 0.823135 3.841860 1.960449
v 1.368590 3.841860 1.960449
v 1.914044 3.841860 1.960449
v 2.459499 3.841860 1.960449
v 2.459499 2.650321 -1.857958
v 1.914044 2.650321 -1.857958
v 1.368590 2.650321 -1.857958
v 0.823135 2.650321 -1.857958
v 0.277681 2.650321 -1.857958
v -0.267774 2.650321 -1.857958
v -0.813228 2.650321 -1.857958
v -1.358683 2.650321 -1.857958
v -1.904137 2.650321 -1.857958
v -2.449592 2.650321 -1.857958
vn -0.0000 -0.9546 0.2979
vn -0.0000 0.9546 -0.2979
vn -0.0000 0.2979 0.9546
vn -0.0000 -0.2979 -0.9546
vn -1.0000 -0.0000 -0.0000
vn 1.0000 -0.0000 -0.0000
vt 0.910339 0.000000
vt 0.910339 1.000000
vt 1.000000 1.000000
vt 1.000000 0.000000
vt 0.092157 1.000000
vt 0.000000 1.000000
vt 0.092157 1.000000
vt 0.000000 0.000000
vt 0.092157 0.000000
vt 0.183066 0.000000
vt 0.273975 0.000000
vt 0.273975 0.000000
vt 0.364884 0.000000
vt 0.455793 0.000000
vt 0.455793 0.000000
vt 0.364884 0.000000
vt 0.546702 0.000000
vt 0.637611 0.000000
vt 0.637612 0.000000
vt 0.546702 0.000000
vt 0.728521 0.000000
vt 0.819430 0.000000
vt 0.819430 1.000000
vt 0.728520 1.000000
vt 0.728521 1.000000
vt 0.637611 1.000000
vt 0.546702 1.000000
vt 0.455793 1.000000
vt 0.364884 1.000000
vt 0.273975 1.000000
vt 0.183066 1.000000
s 0
usemtl Material.009
f 162/89/27 163/90/27 148/91/27 146/92/27
f 182/89/28 151/92/28 152/91/28 183/90/28
f 172/93/29 147/94/29 149/94/29 192/95/29
f 162/89/30 146/92/30 151/92/30 182/89/30
f 146/92/31 148/91/31 152/91/31 151/92/31
f 147/94/32 145/96/32 150/96/32 149/94/32
f 145/96/30 153/97/30 173/97/30 150/96/30
f 154/98/30 155/99/30 175/100/30 174/98/30
f 156/101/30 157/102/30 177/103/30 176/104/30
f 158/105/30 159/106/30 179/107/30 178/108/30
f 160/109/30 161/110/30 181/110/30 180/109/30
f 148/91/29 163/90/29 183/90/29 152/91/29
f 164/111/29 165/112/29 185/113/29 184/111/29
f 166/114/29 167/115/29 187/115/29 186/114/29
f 168/116/29 169/117/29 189/117/29 188/116/29
f 170/118/29 171/119/29 191/119/29 190/118/29
f 150/96/28 173/97/28 192/95/28 149/94/28
f 174/98/28 175/100/28 190/118/28 191/119/28
f 176/104/28 177/103/28 188/116/28 189/117/28
f 178/108/28 179/107/28 186/114/28 187/115/28
f 180/109/28 181/110/28 184/111/28 185/113/28
f 145/96/27 147/94/27 172/93/27 153/97/27
f 154/98/27 171/119/27 170/118/27 155/99/27
f 156/101/27 169/117/27 168/116/27 157/102/27
f 158/105/27 167/115/27 166/114/27 159/106/27
f 160/109/27 165/112/27 164/111/27 161/110/27
o Cube.002
v -1.874074 0.460536 0.610647
v -1.874074 0.460536 0.890647
v -1.594074 0.460536 0.610647
v -1.594074 0.460536 0.890647
v -1.874074 3.437007 0.610647
v -1.874074 3.537280 0.890647
v -1.594074 3.437007 0.610647
v -1.594074 3.537280 0.890647
vn -0.0000 -0.0000 -1.0000
vn -0.0000 0.9414 -0.3372
vn -0.0000 -0.0000 1.0000
vn 1.0000 -0.0000 -0.0000
vn -1.0000 -0.0000 -0.0000
vt 0.625000 0.750000
vt 0.625000 1.000000
vt 0.625000 0.000000
vt 0.625000 0.250000
vt 0.625000 0.500000
s 0
usemtl Material.001
f 195/120/33 193/121/33 197/121/33 199/120/33
f 197/122/34 198/123/34 200/124/34 199/120/34
f 194/123/35 196/124/35 200/124/35 198/123/35
f 196/124/36 195/120/36 199/120/36 200/124/36
f 193/122/37 194/123/37 198/123/37 197/122/37
o Cube.003
v 1.594857 0.460536 0.610647
v 1.594857 0.460536 0.890647
v 1.874857 0.460536 0.610647
v 1.874857 0.460536 0.890647
v 1.594857 3.437007 0.610647
v 1.594857 3.537280 0.890647
v 1.874857 3.437007 0.610647
v 1.874857 3.537280 0.890647
vn -0.0000 -0.0000 -1.0000
vn -0.0000 0.9414 -0.3372
vn -0.0000 -0.0000 1.0000
vn 1.0000 -0.0000 -0.0000
vn -1.0000 -0.0000 -0.0000
vt 0.625000 0.750000
vt 0.625000 1.000000
vt 0.625000 0.000000
vt 0.625000 0.250000
vt 0.625000 0.500000
s 0
usemtl Material.001
f 203/125/38 201/126/38 205/126/38 207/125/38
f 205/127/39 206/128/39 208/129/39 207/125/39
f 202/128/40 204/129/40 208/129/40 206/128/40
f 204/129/41 203/125/41 207/125/41 208/129/41
f 201/127/42 202/128/42 206/128/42 205/127/42
o Plane.001
v -2.449592 3.946792 1.927705
v -1.904137 3.946792 1.927705
v -1.358683 3.946792 1.927705
v -0.813228 3.946792 1.927705
v -0.267774 3.946792 1.927705
v 0.277681 3.946792 1.927705
v 0.823135 3.946792 1.927705
v 1.368590 3.946792 1.927705
v 1.914044 3.946792 1.927705
v 2.459499 3.946792 1.927705
v 2.459499 2.755252 -1.890702
v 1.914044 2.755252 -1.890702
v 1.368590 2.755252 -1.890702
v 0.823135 2.755252 -1.890702
v 0.277681 2.755252 -1.890702
v -0.267774 2.755252 -1.890702
v -0.813228 2.755252 -1.890702
v -1.358683 2.755252 -1.890702
v -1.904137 2.755252 -1.890702
v -2.449592 2.755252 -1.890702
v -2.449592 3.841860 1.960449
v -1.904137 3.841860 1.960449
v -1.358683 3.841860 1.960449
v -0.813228 3.841860 1.960449
v -0.267774 3.841860 1.960449
v 0.277681 3.841860 1.960449
v 0.823135 3.841860 1.960449
v 1.368590 3.841860 1.960449
v 1.914044 3.841860 1.960449
v 2.459499 3.841860 1.960449
v 2.459499 2.650321 -1.857958
v 1.914044 2.650321 -1.857958
v 1.368590 2.650321 -1.857958
v 0.823135 2.650321 -1.857958
v 0.277681 2.650321 -1.857958
v -0.267774 2.650321 -1.857958
v -0.813228 2.650321 -1.857958
v -1.358683 2.650321 -1.857958
v -1.904137 2.650321 -1.857958
v -2.449592 2.650321 -1.857958
vn -0.0000 -0.2979 -0.9546
vn -0.0000 0.2979 0.9546
vn -0.0000 0.9546 -0.2979
vn -0.0000 -0.9546 0.2979
vt 0.092157 0.000000
vt 0.183066 0.000000
vt 0.273975 0.000000
vt 0.364884 0.000000
vt 0.364884 0.000000
vt 0.273975 0.000000
vt 0.455793 0.000000
vt 0.546702 0.000000
vt 0.546702 0.000000
vt 0.455793 0.000000
vt 0.637611 0.000000
vt 0.728521 0.000000
vt 0.637612 0.000000
vt 0.819430 0.000000
vt 0.910339 0.000000
vt 0.910339 1.000000
vt 0.819430 1.000000
vt 0.728520 1.000000
vt 0.637611 1.000000
vt 0.728521 1.000000
vt 0.546702 1.000000
vt 0.455793 1.000000
vt 0.364884 1.000000
vt 0.273975 1.000000
vt 0.183066 1.000000
vt 0.092157 1.000000
vt 0.092157 1.000000
s 0
usemtl Material.008
f 209/130/43 210/131/43 230/131/43 229/130/43
f 211/132/43 212/133/43 232/134/43 231/135/43
f 213/136/43 214/137/43 234/138/43 233/139/43
f 215/140/43 216/141/43 236/141/43 235/142/43
f 217/143/43 218/144/43 238/144/43 237/143/43
f 219/145/44 220/146/44 240/146/44 239/145/44
f 221/147/44 222/148/44 242/148/44 241/149/44
f 223/150/44 224/151/44 244/151/44 243/150/44
f 225/152/44 226/153/44 246/153/44 245/152/44
f 227/154/44 228/155/44 248/156/44 247/154/44
f 229/130/45 230/131/45 247/154/45 248/156/45
f 231/135/45 232/134/45 245/152/45 246/153/45
f 233/139/45 234/138/45 243/150/45 244/151/45
f 235/142/45 236/141/45 241/149/45 242/148/45
f 237/143/45 238/144/45 239/145/45 240/146/45
f 209/130/46 228/155/46 227/154/46 210/131/46
f 211/132/46 226/153/46 225/152/46 212/133/46
f 213/136/46 224/151/46 223/150/46 214/137/46
f 215/140/46 222/148/46 221/147/46 216/141/46
f 217/143/46 220/146/46 219/145/46 218/144/46
